<?xml version="1.0" encoding="UTF-8" standalone="no"?>
<svg
   width="640"
   height="360"
   viewBox="0 0 640 360"
   version="1.1"
   id="svg8"
   xmlns="http://www.w3.org/2000/svg"
   xmlns:svg="http://www.w3.org/2000/svg"
   xmlns:rdf="http://www.w3.org/1999/02/22-rdf-syntax-ns#"
   xmlns:cc="http://creativecommons.org/ns#"
   xmlns:dc="http://purl.org/dc/elements/1.1/">
  <defs
     id="defs2" />
  <metadata
     id="metadata5">
    <rdf:RDF>
      <cc:Work
         rdf:about="">
        <dc:format>image/svg+xml</dc:format>
        <dc:type
           rdf:resource="http://purl.org/dc/dcmitype/StillImage" />
      </cc:Work>
    </rdf:RDF>
  </metadata>
  <path
     id="background"
     style="opacity:1;fill:#000000;fill-opacity:1;stroke:none;stroke-width:0.3;stroke-linejoin:round;stroke-miterlimit:0;stroke-dashoffset:7.28882"
     d="M 3.5603841e-6,-4.0690107e-6 H 640 V 360 H 3.5603841e-6 Z">
    <title
       id="title1">background</title>
  </path>
  <path
     d="m 171.04728,91.85288 h -0.81618 q -6.05334,0 -9.4541,3.06068 -3.33274,2.99267 -3.33274,10.67837 0,2.51656 0.47611,3.53679 0.4761,0.95221 0.4761,1.08824 -3.67281,0 -5.50922,-1.49633 -1.76839,-1.56435 -1.76839,-5.10113 0,-4.82908 2.38053,-8.77395 2.38053,-4.01289 7.54967,-6.46144 5.23717,-2.44854 13.26295,-2.44854 4.48899,0 9.65814,0.81618 4.35297,0.74817 7.75372,0.74817 4.35297,0 7.88975,-1.42832 -0.13603,4.42098 -2.24449,6.52945 -2.10847,2.10847 -6.25739,2.10847 -2.17649,0 -4.35297,-0.34008 -2.17648,-0.34007 -6.18937,-1.15625 l -9.38609,43.66569 h -9.79417 z m 17.00371,11.01845 h 9.79417 l -0.88419,4.21694 q 2.31251,-2.04046 4.14892,-3.1287 1.90442,-1.08824 4.0809,-1.08824 2.17649,0 3.40076,1.49633 1.29229,1.49633 1.29229,3.6048 0,1.97244 -1.29229,3.46877 -1.29229,1.49634 -3.6048,1.49634 -1.49633,0 -2.04045,-0.68016 -0.47611,-0.74816 -0.74817,-2.10846 -0.20405,-0.8842 -0.40809,-1.29229 -0.20405,-0.40809 -0.74817,-0.40809 -1.42831,0 -2.44854,0.61213 -0.95221,0.54413 -2.51656,1.97244 l -5.44121,25.84574 h -9.79417 z m 29.11042,34.41564 q -3.87686,0 -6.46143,-2.65259 -2.58457,-2.65259 -2.58457,-8.29784 0,-5.03312 1.97243,-10.54234 2.04046,-5.57724 5.98533,-9.38608 4.01289,-3.87686 9.52212,-3.87686 2.78862,0 4.14892,0.95221 1.3603,0.95221 1.3603,2.51656 v 0.4761 l 0.74817,-3.6048 h 9.79417 l -4.89709,23.12513 q -0.27206,1.02023 -0.27206,2.17649 0,2.92465 2.78862,2.92465 1.90442,0 3.26473,-1.7684 1.42831,-1.76839 2.24449,-4.62502 h 2.85664 q -2.51656,7.34563 -6.25739,9.99822 -3.67282,2.58457 -7.41365,2.58457 -2.85663,0 -4.62502,-1.56435 -1.70038,-1.63236 -2.04046,-4.69304 -1.97243,2.78862 -4.42098,4.55701 -2.38053,1.70038 -5.71327,1.70038 z m 4.42099,-6.59746 q 1.70037,0 3.33274,-1.56435 1.70037,-1.63236 2.31251,-4.42098 l 3.26472,-15.37142 q 0,-0.88419 -0.68015,-1.70037 -0.68015,-0.8842 -2.10847,-0.8842 -2.7206,0 -4.89708,3.19671 -2.17649,3.1287 -3.40076,7.61769 -1.22427,4.42098 -1.22427,7.82174 0,3.40075 0.95221,4.35296 1.02023,0.95222 2.44855,0.95222 z m 47.74653,6.59746 q -4.14892,0 -6.12136,-2.17648 -1.90442,-2.2445 -1.90442,-5.50923 0,-1.42831 0.34008,-3.19671 0.34007,-1.8364 0.68015,-3.53678 0.40809,-1.70038 0.54412,-2.17648 0.54412,-2.38053 1.02022,-4.69305 0.47611,-2.31251 0.47611,-3.74083 0,-3.46877 -2.44854,-3.46877 -1.7684,0 -3.1287,1.7684 -1.3603,1.70037 -2.17648,4.48899 l -4.62503,21.83285 h -9.79417 l 7.2096,-34.00755 h 9.79417 l -0.74816,3.53679 q 3.40075,-3.80885 7.95776,-3.80885 3.46877,0 5.50923,1.90442 2.04045,1.90443 2.04045,5.78129 0,1.97243 -0.47611,4.42098 -0.4761,2.38053 -1.3603,5.8493 -0.54412,2.10846 -1.02023,4.14892 -0.40809,1.97244 -0.40809,3.12869 0,1.3603 0.61214,2.10847 0.61214,0.74817 2.10847,0.74817 2.04045,0 3.26472,-1.42832 1.22427,-1.49633 2.44855,-4.55701 h 2.85663 q -2.51656,7.48166 -5.8493,10.06623 -3.26472,2.51656 -6.80151,2.51656 z m 17.54784,0 q -3.26473,0 -5.50923,-1.22427 -2.24449,-1.29229 -3.33274,-3.26473 -1.08824,-2.04045 -1.08824,-4.21693 0,-2.2445 1.08824,-3.87686 1.02023,-1.70038 2.51656,-2.44855 2.65259,-4.76105 4.62503,-9.59013 1.97244,-4.89708 3.74083,-10.54234 l 10.06623,-1.3603 q 0.34008,8.70594 1.15626,18.84018 0.34008,4.08091 0.34008,5.91732 0,1.56435 -0.27206,2.58457 3.19671,-1.83641 4.89708,-3.40075 h 2.85664 q -4.35297,5.03311 -10.40631,8.50188 -1.97244,2.10847 -4.89709,3.1287 -2.85663,0.95221 -5.78128,0.95221 z m -2.17649,-5.37319 q 2.51656,0 4.21694,-1.49633 1.70038,-1.49634 1.70038,-4.82908 0,-2.04045 -0.40809,-5.71326 -0.68015,-7.75373 -0.8842,-10.40631 -1.63236,5.37319 -5.50922,12.85485 1.56434,0.81618 1.56434,2.38053 0,1.29228 -0.88419,2.31251 -0.81618,1.02023 -2.10847,1.02023 -1.42832,0 -1.83641,-0.8842 0,2.44854 0.95221,3.6048 1.02023,1.15626 3.19671,1.15626 z m 28.56634,5.37319 q -3.87686,0 -6.46143,-2.65259 -2.58457,-2.65259 -2.58457,-8.29784 0,-5.03312 1.97243,-10.54234 2.04046,-5.57724 5.98533,-9.38608 4.01289,-3.87686 9.52212,-3.87686 2.78861,0 4.14892,0.95221 1.3603,0.95221 1.3603,2.51656 v 0.4761 l 0.74816,-3.6048 h 9.79418 l -4.89709,23.12513 q -0.27206,1.02023 -0.27206,2.17649 0,2.92465 2.78862,2.92465 1.90442,0 3.26472,-1.7684 1.42832,-1.76839 2.2445,-4.62502 h 2.85664 q -2.51656,7.34563 -6.25739,9.99822 -3.67282,2.58457 -7.41365,2.58457 -2.85663,0 -4.62502,-1.56435 -1.70038,-1.63236 -2.04046,-4.69304 -1.97244,2.78862 -4.42098,4.55701 -2.38053,1.70038 -5.71327,1.70038 z m 4.42098,-6.59746 q 1.70038,0 3.33274,-1.56435 1.70038,-1.63236 2.31252,-4.42098 l 3.26472,-15.37142 q 0,-0.88419 -0.68015,-1.70037 -0.68015,-0.8842 -2.10847,-0.8842 -2.7206,0 -4.89708,3.19671 -2.17649,3.1287 -3.40076,7.61769 -1.22427,4.42098 -1.22427,7.82174 0,3.40075 0.95221,4.35296 1.02023,0.95222 2.44854,0.95222 z m 32.91925,6.59746 q -5.03312,0 -7.82174,-2.58457 -2.78862,-2.65259 -2.78862,-8.22983 0,-4.69304 1.83641,-10.3383 1.90442,-5.64525 5.98533,-9.72615 4.14892,-4.14893 10.47433,-4.14893 4.0809,0 5.78128,1.7684 1.76839,1.76839 1.76839,4.48899 0,2.38053 -1.02023,3.67282 -1.02022,1.29229 -2.58457,1.29229 -1.15626,0 -2.38053,-0.81619 0.81618,-2.24449 0.81618,-4.01289 0,-1.29228 -0.4761,-2.04045 -0.47611,-0.74817 -1.42832,-0.74817 -2.04045,0 -4.0809,3.33274 -2.04046,3.33274 -3.33274,8.0938 -1.29229,4.76106 -1.29229,8.5699 0,3.33274 1.15626,4.55702 1.15625,1.15625 3.74083,1.15625 3.67281,0 6.25738,-1.70038 2.65259,-1.70037 5.78129,-5.16914 h 2.31251 q -7.54967,12.58279 -18.70415,12.58279 z m 23.12506,0 q -3.26473,0 -5.30518,-2.04045 -1.97244,-2.04046 -1.97244,-6.12136 0,-1.70038 0.54412,-4.42098 l 4.08091,-19.11225 h -2.2445 l 0.54412,-2.7206 h 2.2445 l 2.04045,-9.38608 10.06624,-1.36031 -2.31252,10.74639 h 4.08091 l -0.54412,2.7206 h -4.08091 l -4.35296,20.40453 q -0.27206,1.02023 -0.27206,2.17649 0,1.3603 0.61213,1.97244 0.68015,0.54412 2.17648,0.54412 1.97244,0 3.67282,-1.63237 1.70038,-1.70037 2.44854,-4.35296 h 2.85664 q -2.51656,7.34563 -6.46144,9.99822 -3.94487,2.58457 -7.82173,2.58457 z m 22.78495,-38.08845 q -2.2445,0 -3.80884,-1.56435 -1.56435,-1.56435 -1.56435,-3.80885 0,-2.2445 1.56435,-3.80884 1.56434,-1.63237 3.80884,-1.63237 2.2445,0 3.80885,1.63237 1.63236,1.56434 1.63236,3.80884 0,2.2445 -1.63236,3.80885 -1.56435,1.56435 -3.80885,1.56435 z m -4.62503,38.08845 q -3.26472,0 -5.30517,-2.04045 -1.97244,-2.04046 -1.97244,-6.12136 0,-1.70038 0.54412,-4.42098 l 4.62503,-21.83285 h 9.79417 l -4.89709,23.12513 q -0.27206,1.02023 -0.27206,2.17649 0,1.3603 0.61214,1.97244 0.68015,0.54412 2.17648,0.54412 1.97244,0 3.67282,-1.63237 1.70037,-1.70037 2.44854,-4.35296 h 2.85663 q -2.51655,7.34563 -6.46143,9.99822 -3.94488,2.58457 -7.82174,2.58457 z m 21.35663,-0.13603 q -5.03312,0 -7.95777,-2.58457 -2.92465,-2.58458 -2.92465,-8.16182 0,-4.62502 1.90442,-10.27028 1.90443,-5.64525 6.12136,-9.72615 4.21694,-4.14893 10.61036,-4.14893 8.70593,0 8.70593,10.88242 v 0.068 q 0.20404,0.068 0.74817,0.068 2.24449,0 5.16914,-1.15626 2.92465,-1.22427 5.30518,-2.92465 l 0.61214,1.83641 q -1.97244,2.10847 -5.16915,3.6048 -3.1287,1.42832 -6.86953,2.04046 -0.54412,6.18937 -2.78861,10.8144 -2.2445,4.62502 -5.78129,7.14158 -3.53678,2.51656 -7.6857,2.51656 z m 2.7206,-6.12136 q 1.63236,0 3.26472,-1.83641 1.63237,-1.90442 2.85664,-5.10113 1.22427,-3.26472 1.76839,-7.2096 -1.83641,-0.40809 -1.83641,-2.85663 0,-2.78862 2.10847,-3.67282 -0.13603,-2.2445 -0.68015,-3.06068 -0.54412,-0.88419 -1.90442,-0.88419 -2.2445,0 -4.35297,3.26472 -2.10847,3.26473 -3.40075,7.82174 -1.29229,4.55701 -1.29229,8.02578 0,3.26472 0.74817,4.42098 0.74816,1.08824 2.7206,1.08824 z m 41.76122,6.25739 q -4.14892,0 -6.12136,-2.17648 -1.90442,-2.2445 -1.90442,-5.50923 0,-1.42831 0.34008,-3.19671 0.34007,-1.8364 0.68015,-3.53678 0.40809,-1.70038 0.54412,-2.17648 0.54412,-2.38053 1.02023,-4.69305 0.4761,-2.31251 0.4761,-3.74083 0,-3.46877 -2.44854,-3.46877 -1.76839,0 -3.1287,1.7684 -1.3603,1.70037 -2.17648,4.48899 l -4.62503,21.83285 h -9.79417 l 7.2096,-34.00755 h 9.79417 l -0.74816,3.53679 q 3.40075,-3.80885 7.95776,-3.80885 3.46877,0 5.50923,1.90442 2.04045,1.90443 2.04045,5.78129 0,1.97243 -0.47611,4.42098 -0.4761,2.38053 -1.3603,5.8493 -0.54412,2.10846 -1.02022,4.14892 -0.40809,1.97244 -0.40809,3.12869 0,1.3603 0.61213,2.10847 0.61214,0.74817 2.10847,0.74817 2.04045,0 3.26472,-1.42832 1.22428,-1.49633 2.44855,-4.55701 h 2.85663 q -2.51656,7.48166 -5.8493,10.06623 -3.26472,2.51656 -6.80151,2.51656 z m 17.54784,0 q -3.26473,0 -5.50922,-1.22427 -2.2445,-1.29229 -3.33274,-3.26473 -1.08825,-2.04045 -1.08825,-4.21693 0,-2.2445 1.08825,-3.87686 1.02022,-1.70038 2.51655,-2.44855 2.65259,-4.76105 4.62503,-9.59013 1.97244,-4.89708 3.74083,-10.54234 l 10.06624,-1.3603 q 0.34007,8.70594 1.15625,18.84018 0.34008,4.08091 0.34008,5.91732 0,4.14892 -2.10847,6.80151 -2.10847,2.65259 -5.23716,3.80884 -3.06068,1.15626 -6.25739,1.15626 z m -2.17648,-5.37319 q 2.51655,0 4.21693,-1.49633 1.70038,-1.49634 1.70038,-4.82908 0,-2.04045 -0.40809,-5.71326 -0.68015,-7.75373 -0.8842,-10.40631 -1.63236,5.37319 -5.50922,12.85485 1.56435,0.81618 1.56435,2.38053 0,1.29228 -0.8842,2.31251 -0.81618,1.02023 -2.10847,1.02023 -1.42831,0 -1.83641,-0.8842 0,2.44854 0.95222,3.6048 1.02022,1.15626 3.19671,1.15626 z"
     id="transactions"
     style="font-size:68.0151px;line-height:1.25;font-family:Lobster;-inkscape-font-specification:'Lobster, Normal';letter-spacing:0px;word-spacing:0px;fill:#ffd700;stroke-width:0.999998">
    <title
       id="title5">transactions</title>
  </path>
  <path
     d="m 178.79073,163.61452 q -7.95715,3.32537 -12.35139,9.9761 -4.27549,6.65076 -4.27549,16.03306 0,4.39425 0.83135,6.1757 0.83135,1.66269 0.83135,1.90021 -6.41323,0 -9.61985,-2.61279 -3.08784,-2.73156 -3.08784,-8.90726 0,-7.60085 6.17569,-14.72665 6.29445,-7.24457 16.03305,-11.63881 9.7386,-4.513 19.4772,-4.513 1.66268,0 4.75053,0.23752 l -7.60085,35.39148 h 17.45822 l 7.60084,-35.39148 h 17.10193 l -18.88337,88.83498 h -17.10193 l 9.50107,-44.655 h -17.45821 l -9.50108,44.655 h -17.10191 z m 69.71396,14.96417 q -3.9192,0 -6.65074,-2.73156 -2.73156,-2.73156 -2.73156,-6.65074 0,-3.91919 2.73156,-6.65075 2.73154,-2.85032 6.65074,-2.85032 3.91919,0 6.65075,2.85032 2.85032,2.73156 2.85032,6.65075 0,3.91918 -2.85032,6.65074 -2.73156,2.73156 -6.65075,2.73156 z m -8.0759,66.50747 q -5.70065,0 -9.26354,-3.56289 -3.44415,-3.5629 -3.44415,-10.68871 0,-2.96908 0.95011,-7.71961 l 8.07591,-38.12304 h 17.10192 l -8.55097,40.37955 q -0.47505,1.78144 -0.47505,3.80042 0,2.37526 1.06888,3.44414 1.18763,0.95011 3.80042,0.95011 3.44414,0 6.41323,-2.85032 2.96909,-2.96909 4.27547,-7.60086 h 4.98807 q -4.39424,12.82644 -11.28252,17.45821 -6.88827,4.513 -13.65778,4.513 z m 33.49106,0 q -5.70065,0 -9.61983,-2.13773 -3.91919,-2.25651 -5.8194,-5.70064 -1.90023,-3.56291 -1.90023,-7.36333 0,-3.9192 1.90023,-6.76951 1.78144,-2.96909 4.39423,-4.27548 4.63177,-8.31344 8.07591,-16.74563 3.44414,-8.55097 6.53199,-18.40832 l 17.57698,-2.37526 q 0.59381,15.2017 2.01897,32.89744 0.59382,7.12579 0.59382,10.33241 0,2.73156 -0.47505,4.51302 5.58188,-3.20662 8.55095,-5.93818 h 4.98807 q -7.60086,8.78849 -18.17079,14.84542 -3.44414,3.68167 -8.55097,5.46311 -4.98805,1.66268 -10.09488,1.66268 z m -3.80042,-9.3823 q 4.39423,0 7.36332,-2.61279 2.96908,-2.61279 2.96908,-8.43219 0,-3.56291 -0.71257,-9.97613 -1.18764,-13.53902 -1.54393,-18.17079 -2.85032,9.3823 -9.61983,22.44627 2.73156,1.42516 2.73156,4.15672 0,2.25651 -1.54393,4.03795 -1.42516,1.78145 -3.68167,1.78145 -2.49403,0 -3.20661,-1.54393 0,4.2755 1.6627,6.29446 1.78144,2.01898 5.58188,2.01898 z m 47.38657,9.3823 q -5.70063,0 -9.26355,-3.56289 -3.44412,-3.5629 -3.44412,-10.68871 0,-2.96908 0.95011,-7.71961 l 7.12579,-33.3725 h -3.9192 l 0.95013,-4.75054 h 3.91917 l 3.56292,-16.38934 17.57696,-2.37526 -4.03794,18.7646 h 7.12579 l -0.95011,4.75054 h -7.12579 l -7.60086,35.62901 q -0.47505,1.78144 -0.47505,3.80042 0,2.37526 1.06887,3.44414 1.18764,0.95011 3.80043,0.95011 3.44414,0 6.41321,-2.85032 2.96909,-2.96909 4.27549,-7.60086 h 4.98805 q -4.39424,12.82644 -11.28251,17.45821 -6.88828,4.513 -13.65779,4.513 z m 37.29148,-0.23752 q -8.78847,0 -13.8953,-4.513 -5.10682,-4.513 -5.10682,-14.2516 0,-8.07592 3.32536,-17.93327 3.32537,-9.85737 10.68871,-16.98316 7.36333,-7.24456 18.52707,-7.24456 15.20172,0 15.20172,19.00212 v 0.11874 q 0.35629,0.11874 1.30639,0.11874 3.91919,0 9.02602,-2.01897 5.10683,-2.13774 9.26355,-5.10682 l 1.06886,3.20661 q -3.44413,3.68165 -9.02601,6.29446 -5.46312,2.49402 -11.9951,3.56289 -0.95011,10.80746 -4.8693,18.88338 -3.9192,8.07591 -10.09488,12.47014 -6.17571,4.39424 -13.42027,4.39424 z m 4.75055,-10.68871 q 2.85031,0 5.70063,-3.20659 2.85032,-3.32539 4.98807,-8.90727 2.13774,-5.70063 3.08784,-12.58891 -3.20661,-0.71258 -3.20661,-4.98806 0,-4.8693 3.68167,-6.41323 -0.23753,-3.91917 -1.18764,-5.34433 -0.9501,-1.54393 -3.32537,-1.54393 -3.91919,0 -7.60086,5.70063 -3.68166,5.70065 -5.93817,13.65779 -2.25649,7.95715 -2.25649,14.01408 0,5.70065 1.30638,7.71961 1.30641,1.90021 4.75055,1.90021 z m 38.12292,-49.16802 h 17.10193 l -1.54393,7.36333 q 4.03795,-3.56289 7.24456,-5.46311 3.32537,-1.90022 7.12581,-1.90022 3.80042,0 5.93816,2.6128 2.25651,2.61279 2.25651,6.29446 0,3.44412 -2.25651,6.05693 -2.25651,2.61279 -6.29446,2.61279 -2.61279,0 -3.56289,-1.18763 -0.83135,-1.3064 -1.30641,-3.68167 -0.35628,-1.54393 -0.71258,-2.25651 -0.35628,-0.71258 -1.30638,-0.71258 -2.49404,0 -4.27549,1.06888 -1.66269,0.95011 -4.39425,3.44414 l -9.50105,45.13006 h -17.10194 z m 55.10613,89.07252 q -5.58188,0 -9.85735,-3.68167 -4.15672,-3.56289 -4.15672,-9.14477 0,-5.2256 2.61279,-8.55097 2.61279,-3.32536 6.76951,-5.22558 4.15672,-1.90022 11.16375,-4.03796 l 1.18764,-5.22558 q -6.05693,6.88826 -14.48913,6.88826 -5.70065,0 -9.26355,-3.56289 -3.44414,-3.5629 -3.44414,-10.68871 0,-2.96908 0.95011,-7.71961 l 8.07591,-38.12304 h 17.10192 l -8.55095,40.37955 q -0.3563,1.42516 -0.3563,2.96907 0,5.2256 3.56291,5.2256 3.32537,0 5.70064,-2.73157 2.37526,-2.85031 3.80042,-7.71961 l 8.07591,-38.12304 h 17.22069 l -14.48913,68.88275 q -2.37526,11.40128 -8.43219,15.79553 -5.93818,4.39424 -13.18274,4.39424 z m -2.73156,-10.56995 q 2.13774,0 4.03796,-2.25649 1.90022,-2.13774 2.96908,-7.00704 l 1.42515,-7.00703 q -6.29445,2.13774 -9.73858,4.98805 -3.44414,2.85032 -3.44414,7.36334 0,1.42515 1.42516,2.61279 1.42516,1.30638 3.32537,1.30638 z"
     id="history"
     style="font-size:68.0151px;line-height:1.25;font-family:Lobster;-inkscape-font-specification:'Lobster, Normal';letter-spacing:0px;word-spacing:0px;fill:#ffd700;stroke-width:0.999998">
    <title
       id="title6">history</title>
  </path>
</svg>
