<?xml version="1.0" encoding="UTF-8" standalone="no"?>
<svg
   xmlns:dc="http://purl.org/dc/elements/1.1/"
   xmlns:cc="http://creativecommons.org/ns#"
   xmlns:rdf="http://www.w3.org/1999/02/22-rdf-syntax-ns#"
   xmlns:svg="http://www.w3.org/2000/svg"
   xmlns="http://www.w3.org/2000/svg"
   xmlns:sodipodi="http://sodipodi.sourceforge.net/DTD/sodipodi-0.dtd"
   xmlns:inkscape="http://www.inkscape.org/namespaces/inkscape"
   width="512"
   height="512"
   viewBox="0 0 135.46666 135.46667"
   version="1.1"
   id="svg8"
   inkscape:version="1.0 (4035a4fb49, 2020-05-01)"
   sodipodi:docname="logo.svg"
   inkscape:export-filename="/home/madhead/Projects/tyzenhaus/tyzenhaus/logo.png"
   inkscape:export-xdpi="96"
   inkscape:export-ydpi="96">
  <defs
     id="defs2" />
  <sodipodi:namedview
     id="base"
     pagecolor="#ffffff"
     bordercolor="#666666"
     borderopacity="1.0"
     inkscape:pageopacity="0.0"
     inkscape:pageshadow="2"
     inkscape:zoom="0.98994949"
     inkscape:cx="269.98127"
     inkscape:cy="290.70259"
     inkscape:document-units="mm"
     inkscape:current-layer="layer1"
     inkscape:document-rotation="0"
     showgrid="false"
     units="px"
     inkscape:window-width="1920"
     inkscape:window-height="999"
     inkscape:window-x="0"
     inkscape:window-y="0"
     inkscape:window-maximized="1" />
  <metadata
     id="metadata5">
    <rdf:RDF>
      <cc:Work
         rdf:about="">
        <dc:format>image/svg+xml</dc:format>
        <dc:type
           rdf:resource="http://purl.org/dc/dcmitype/StillImage" />
        <dc:title />
      </cc:Work>
    </rdf:RDF>
  </metadata>
  <g
     inkscape:label="Layer 1"
     inkscape:groupmode="layer"
     id="layer1">
    <path
       id="rect893"
       style="opacity:1;fill:#000000;fill-opacity:1;stroke:none;stroke-width:0.3;stroke-linejoin:round;stroke-miterlimit:0;stroke-dashoffset:7.28882"
       d="M 3.5603841e-6,-4.0690106e-6 H 135.46666 V 135.46667 H 3.5603841e-6 Z" />
    <g
       style="font-style:normal;font-variant:normal;font-weight:normal;font-stretch:normal;font-size:67.5406px;line-height:1.25;font-family:'Lobster 1.4';-inkscape-font-specification:'Lobster 1.4, Normal';font-variant-ligatures:normal;font-variant-caps:normal;font-variant-numeric:normal;font-feature-settings:normal;text-align:start;letter-spacing:0px;word-spacing:0px;writing-mode:lr-tb;text-anchor:start;fill:#ffd700;fill-opacity:1;stroke:none;stroke-width:0.264583"
       id="text855"
       aria-label="Ћ">
      <path
         id="path10"
         style="font-style:normal;font-variant:normal;font-weight:normal;font-stretch:normal;font-size:67.5406px;font-family:'Lobster 1.4';-inkscape-font-specification:'Lobster 1.4, Normal';font-variant-ligatures:normal;font-variant-caps:normal;font-variant-numeric:normal;font-variant-east-asian:normal;fill:#ffd700;fill-opacity:1;stroke-width:0.264583"
         d="m 77.561019,71.773237 q 0,-4.71597 -3.759585,-4.71597 -2.605326,0 -5.177673,1.813834 l -5.045758,23.57985 h -9.728749 l 9.596834,-44.719267 h -0.82447 q -5.969165,0 -9.036194,2.77022 -3.660648,3.297881 -3.660648,10.883007 0,2.671284 0.82447,4.122352 0.131915,0.26383 0.131915,0.461703 -5.474482,0 -6.760656,-3.462775 -0.461703,-1.253195 -0.461703,-3.858521 0,-2.605326 1.253195,-5.771292 1.253194,-3.165966 3.990436,-5.606398 6.068101,-5.408524 17.775578,-5.408524 4.781928,0 7.585127,0.494682 2.836177,0.494682 4.913843,0.791491 2.110643,0.263831 5.606397,0.263831 3.528733,0 7.024487,-1.418089 -0.131915,4.485118 -2.242559,6.529804 -2.110644,2.044686 -5.705334,2.044686 -3.561712,0 -10.981944,-1.484046 l -3.297881,15.269189 q 4.023415,-2.572347 9.464918,-2.572347 5.441504,0 7.354275,5.342567 0.659576,1.813835 0.659576,4.913843 0,3.067029 -1.352131,8.409597 -1.319152,5.342567 -1.319152,7.255338 0,3.726606 2.605326,4.748949 -4.221288,1.154258 -7.090445,1.154258 -5.24363,0 -5.24363,-4.518097 0,-2.539368 1.945749,-10.619177 0.164894,-0.758513 0.329788,-1.64894 l 0.29681,-1.912771 q 0.329788,-2.044687 0.329788,-3.132987 z" />
    </g>
  </g>
</svg>
