<?xml version="1.0" encoding="UTF-8" standalone="no"?>
<svg
   width="512"
   height="512"
   viewBox="0 0 512 512"
   version="1.1"
   id="svg8"
   xmlns="http://www.w3.org/2000/svg"
   xmlns:svg="http://www.w3.org/2000/svg"
   xmlns:rdf="http://www.w3.org/1999/02/22-rdf-syntax-ns#"
   xmlns:cc="http://creativecommons.org/ns#"
   xmlns:dc="http://purl.org/dc/elements/1.1/">
  <defs
     id="defs2" />
  <metadata
     id="metadata5">
    <rdf:RDF>
      <cc:Work
         rdf:about="">
        <dc:format>image/svg+xml</dc:format>
        <dc:type
           rdf:resource="http://purl.org/dc/dcmitype/StillImage" />
      </cc:Work>
    </rdf:RDF>
  </metadata>
  <path
     id="background"
     style="opacity:1;fill:#000000;fill-opacity:1;stroke:none;stroke-width:0.3;stroke-linejoin:round;stroke-miterlimit:0;stroke-dashoffset:7.28882"
     d="M 3.5603841e-6,-4.0690107e-6 H 512 V 512.00006 H 3.5603841e-6 Z">
    <title
       id="title1">background</title>
  </path>
  <path
     id="path10"
     style="font-style:normal;font-variant:normal;font-weight:normal;font-stretch:normal;font-size:67.5406px;line-height:1.25;font-family:'Lobster 1.4';-inkscape-font-specification:'Lobster 1.4, Normal';font-variant-ligatures:normal;font-variant-caps:normal;font-variant-numeric:normal;font-variant-east-asian:normal;font-feature-settings:normal;text-align:start;letter-spacing:0px;word-spacing:0px;writing-mode:lr-tb;text-anchor:start;fill:#ffd700;fill-opacity:1;stroke:none;stroke-width:0.264583"
     d="m 293.14402,271.26896 q 0,-17.82414 -14.20946,-17.82414 -9.8469,0 -19.56916,6.85543 l -19.07058,89.1207 h -36.77008 l 36.2715,-169.01771 h -3.1161 q -22.56063,0 -34.15255,10.47012 -13.83552,12.46443 -13.83552,41.13263 0,10.09619 3.11611,15.58054 0.49857,0.99716 0.49857,1.74502 -20.69095,0 -25.55208,-13.08765 -1.74502,-4.73649 -1.74502,-14.58339 0,-9.8469 4.73648,-21.81276 4.73648,-11.96585 15.08197,-21.18954 22.93455,-20.44166 67.18329,-20.44166 18.07343,0 28.66819,1.86966 10.71941,1.86967 18.57201,2.99146 7.97723,0.99716 21.18953,0.99716 13.33695,0 26.54925,-5.35971 -0.49858,16.95163 -8.47582,24.67958 -7.97723,7.72795 -21.56346,7.72795 -13.46159,0 -41.50657,-5.609 l -12.46443,57.71033 q 15.20661,-9.72226 35.77292,-9.72226 20.56632,0 27.79569,20.19238 2.49288,6.85544 2.49288,18.57201 0,11.59192 -5.11041,31.7843 -4.98577,20.19238 -4.98577,27.42176 0,14.08481 9.8469,17.94878 -15.95448,4.36255 -26.79854,4.36255 -19.81844,0 -19.81844,-17.07627 0,-9.59761 7.35401,-40.13548 0.62322,-2.86682 1.24644,-6.23221 l 1.1218,-7.22937 q 1.24645,-7.72795 1.24645,-11.84121 z">
    <title
       id="title2">Ћ</title>
  </path>
</svg>
