<?xml version="1.0" encoding="UTF-8" standalone="no"?>
<svg
   width="640"
   height="360"
   viewBox="0 0 640 360"
   version="1.1"
   id="svg8"
   xmlns="http://www.w3.org/2000/svg"
   xmlns:svg="http://www.w3.org/2000/svg"
   xmlns:rdf="http://www.w3.org/1999/02/22-rdf-syntax-ns#"
   xmlns:cc="http://creativecommons.org/ns#"
   xmlns:dc="http://purl.org/dc/elements/1.1/">
  <defs
     id="defs2" />
  <metadata
     id="metadata5">
    <rdf:RDF>
      <cc:Work
         rdf:about="">
        <dc:format>image/svg+xml</dc:format>
        <dc:type
           rdf:resource="http://purl.org/dc/dcmitype/StillImage" />
      </cc:Work>
    </rdf:RDF>
  </metadata>
  <path
     id="background"
     style="opacity:1;fill:#000000;fill-opacity:1;stroke:none;stroke-width:0.3;stroke-linejoin:round;stroke-miterlimit:0;stroke-dashoffset:7.28882"
     d="M 3.5603841e-6,-4.0690107e-6 H 640 V 360 H 3.5603841e-6 Z">
    <title
       id="title1">background</title>
  </path>
  <path
     id="text1"
     style="font-size:68.3339px;line-height:1.25;font-family:Lobster;-inkscape-font-specification:'Lobster, Normal';letter-spacing:0px;word-spacing:0px;fill:#ffd700;stroke-width:5.69449"
     d="M 241.68945 102.92383 C 237.95387 102.92383 234.218 103.78841 230.48242 105.51953 C 226.74684 107.2051 223.67227 109.43789 221.25781 112.2168 C 218.8889 114.95015 217.70508 117.77583 217.70508 120.69141 C 217.70508 123.06031 218.29601 124.76862 219.48047 125.81641 C 220.71047 126.81864 222.55561 127.31836 225.01562 127.31836 C 225.01562 127.22725 224.856 126.86239 224.53711 126.22461 C 224.21822 125.54127 224.05859 124.35744 224.05859 122.67188 C 224.05859 117.43295 225.60923 113.35698 228.70703 110.44141 C 231.85039 107.52583 236.19999 106.06641 241.75781 106.06641 C 244.58228 106.06641 246.70105 106.93294 248.11328 108.66406 C 249.52551 110.39518 250.23047 112.62797 250.23047 115.36133 C 250.23047 117.82135 249.70794 120.32582 248.66016 122.87695 C 247.61237 125.42808 246.1549 127.56966 244.28711 129.30078 C 242.46488 131.03191 240.46012 131.9877 238.27344 132.16992 L 243.125 109.34766 L 233.01172 110.71289 L 223.7168 154.17383 L 233.55859 154.17383 L 237.72656 134.69922 L 238.06836 134.69922 C 241.98616 134.69922 245.44839 133.80988 248.45508 132.0332 C 251.46177 130.21096 253.76102 127.88892 255.35547 125.06445 C 256.99548 122.23999 257.81641 119.3459 257.81641 116.38477 C 257.81641 113.92475 257.22351 111.69392 256.03906 109.68945 C 254.90017 107.63944 253.12345 105.99954 250.70898 104.76953 C 248.29452 103.53953 245.28837 102.92383 241.68945 102.92383 z M 293.55469 105.45117 C 292.05135 105.45117 290.7763 105.99845 289.72852 107.0918 C 288.68073 108.13958 288.15625 109.41463 288.15625 110.91797 C 288.15625 112.42131 288.68073 113.69831 289.72852 114.74609 C 290.7763 115.79388 292.05135 116.31641 293.55469 116.31641 C 295.05803 116.31641 296.33307 115.79388 297.38086 114.74609 C 298.4742 113.69831 299.02148 112.42131 299.02148 110.91797 C 299.02148 109.41463 298.4742 108.13958 297.38086 107.0918 C 296.33307 105.99845 295.05803 105.45117 293.55469 105.45117 z M 323.34766 118.64062 C 321.93542 118.64062 320.86562 118.98268 320.13672 119.66602 C 319.45338 120.34935 319.11133 121.23673 319.11133 122.33008 C 319.11133 123.19564 319.31656 123.99376 319.72656 124.72266 C 320.18212 125.45155 320.79781 125.81641 321.57227 125.81641 C 321.93671 125.81641 322.36803 125.77079 322.86914 125.67969 C 323.37025 125.54302 323.6667 125.36059 323.75781 125.13281 C 323.75781 127.77505 323.21248 130.91803 322.11914 134.5625 C 321.0258 138.20698 319.56637 141.34995 317.74414 143.99219 C 315.96746 146.63443 314.03306 147.95508 311.9375 147.95508 C 310.38859 147.95508 309.61328 147.20452 309.61328 145.70117 C 309.61328 145.20006 309.7273 144.37913 309.95508 143.24023 L 314.875 120.00781 L 305.03516 120.00781 L 300.39062 141.94141 L 300.38867 141.94141 C 299.88756 143.71808 299.06663 145.17751 297.92773 146.31641 C 296.78884 147.40975 295.55941 147.95508 294.23828 147.95508 C 293.23606 147.95508 292.50634 147.77265 292.05078 147.4082 C 291.64077 146.9982 291.4375 146.33885 291.4375 145.42773 C 291.4375 144.65329 291.52676 143.92357 291.70898 143.24023 L 296.63086 120.00781 L 286.78906 120.00781 L 282.14258 141.94141 C 281.77813 143.76364 281.5957 145.24587 281.5957 146.38477 C 281.5957 149.11812 282.25701 151.16652 283.57812 152.5332 C 284.9448 153.89988 286.72152 154.58398 288.9082 154.58398 C 291.50489 154.58398 294.12338 153.71941 296.76562 151.98828 C 297.93218 151.20387 299.00039 150.09439 299.98047 148.69727 C 300.28264 150.32283 300.92879 151.63576 301.95898 152.60156 C 303.46232 153.92269 305.53549 154.58398 308.17773 154.58398 C 312.50554 154.58398 316.12739 152.94409 319.04297 149.66406 C 321.95855 146.38404 324.12292 142.42014 325.53516 137.77344 C 326.94739 133.08118 327.6543 128.68597 327.6543 124.58594 C 327.6543 122.85482 327.31225 121.44295 326.62891 120.34961 C 325.94557 119.21072 324.851 118.64062 323.34766 118.64062 z M 382.11523 119.39258 C 377.87853 119.39258 374.3707 120.78164 371.5918 123.56055 C 368.85844 126.2939 366.85369 129.5509 365.57812 133.33203 C 364.34812 137.11317 363.73438 140.57539 363.73438 143.71875 C 363.73438 143.90956 363.76466 144.06821 363.76953 144.25391 C 363.36343 145.14156 362.9009 145.92905 362.36719 146.58984 C 361.45607 147.7743 360.36346 148.36523 359.08789 148.36523 C 357.2201 148.36523 356.28516 147.38664 356.28516 145.42773 C 356.28516 144.65329 356.37637 143.92357 356.55859 143.24023 L 361.47852 120.00781 L 351.63867 120.00781 L 350.88672 123.62891 L 350.88672 123.15039 C 350.88672 122.10261 350.43065 121.26083 349.51953 120.62305 C 348.60841 119.98526 347.21935 119.66602 345.35156 119.66602 C 341.66154 119.66602 338.47295 120.96386 335.78516 123.56055 C 333.14291 126.11167 331.13816 129.25465 329.77148 132.99023 C 328.45036 136.68026 327.79102 140.21089 327.79102 143.58203 C 327.79102 147.36317 328.65559 150.14324 330.38672 151.91992 C 332.11784 153.69661 334.28222 154.58398 336.87891 154.58398 C 339.11114 154.58398 341.02468 154.0139 342.61914 152.875 C 344.25915 151.69055 345.73943 150.16467 347.06055 148.29688 C 347.28833 150.34689 347.97048 151.91837 349.10938 153.01172 C 350.29383 154.0595 351.84447 154.58398 353.75781 154.58398 C 356.26339 154.58398 358.74506 153.71941 361.20508 151.98828 C 362.36328 151.16701 363.43108 149.99488 364.41406 148.50195 C 364.88084 149.91582 365.58345 151.083 366.53516 151.98828 C 368.40295 153.71941 371.02339 154.58398 374.39453 154.58398 C 380.52866 154.58398 385.83332 151.69493 390.33984 146.01367 C 390.33659 146.12731 390.31445 146.27722 390.31445 146.38477 C 390.31445 149.11812 390.97576 151.16652 392.29688 152.5332 C 393.66355 153.89988 395.44027 154.58398 397.62695 154.58398 C 400.86142 154.58398 403.64149 153.26334 405.96484 150.62109 L 405.28125 153.62695 C 402.59345 154.44696 400.45187 155.22228 398.85742 155.95117 C 397.26296 156.68007 395.96512 157.68147 394.96289 158.95703 C 393.96066 160.2326 393.45898 161.8725 393.45898 163.87695 C 393.45898 166.01808 394.25515 167.77199 395.84961 169.13867 C 397.48962 170.5509 399.38036 171.25781 401.52148 171.25781 C 404.30039 171.25781 406.82963 170.41409 409.10742 168.72852 C 411.43077 167.04295 413.04787 164.01399 413.95898 159.64062 L 422.29492 120.00781 L 412.38672 120.00781 L 407.74023 141.94141 C 407.19357 143.8092 406.46581 145.29143 405.55469 146.38477 C 404.64357 147.43255 403.549 147.95508 402.27344 147.95508 C 400.90677 147.95508 400.22461 146.95368 400.22461 144.94922 C 400.22461 144.35699 400.29302 143.78691 400.42969 143.24023 L 405.34961 120.00781 L 395.50977 120.00781 L 390.86133 141.94141 C 388.76576 144.26475 386.83137 145.99587 385.05469 147.13477 C 383.32357 148.27366 381.2276 148.84375 378.76758 148.84375 C 377.03645 148.84375 375.78227 148.45609 375.00781 147.68164 C 374.23336 146.86163 373.84766 145.33575 373.84766 143.10352 C 373.84766 140.55238 374.27897 137.68305 375.14453 134.49414 C 376.01009 131.30523 377.12746 128.59357 378.49414 126.36133 C 379.86082 124.12908 381.22708 123.01367 382.59375 123.01367 C 383.23154 123.01367 383.7104 123.26451 384.0293 123.76562 C 384.34818 124.26674 384.50781 124.95085 384.50781 125.81641 C 384.50781 127.00087 384.23417 128.34432 383.6875 129.84766 C 384.50751 130.39433 385.30368 130.66797 386.07812 130.66797 C 387.12591 130.66797 387.99244 130.2347 388.67578 129.36914 C 389.35912 128.50357 389.70117 127.27414 389.70117 125.67969 C 389.70117 123.85745 389.10828 122.35242 387.92383 121.16797 C 386.78493 119.98352 384.84858 119.39258 382.11523 119.39258 z M 261.0957 120.00781 L 253.85352 154.17383 L 263.69336 154.17383 L 269.16016 128.20703 C 270.20794 127.25036 271.04972 126.58906 271.6875 126.22461 C 272.37084 125.8146 273.19177 125.61133 274.14844 125.61133 C 274.51289 125.61133 274.76372 125.74814 274.90039 126.02148 C 275.03706 126.29482 275.17388 126.72613 275.31055 127.31836 C 275.49277 128.22948 275.74166 128.93639 276.06055 129.4375 C 276.425 129.89306 277.1091 130.12109 278.11133 130.12109 C 279.66023 130.12109 280.86686 129.61942 281.73242 128.61719 C 282.59798 127.61496 283.03125 126.45393 283.03125 125.13281 C 283.03125 123.72057 282.59798 122.51199 281.73242 121.50977 C 280.91242 120.50753 279.7742 120.00781 278.31641 120.00781 C 276.85862 120.00781 275.49236 120.37071 274.2168 121.09961 C 272.98678 121.8285 271.59773 122.87747 270.04883 124.24414 L 270.93555 120.00781 L 261.0957 120.00781 z M 347.4707 123.90234 C 348.42738 123.90234 349.13233 124.19879 349.58789 124.79102 C 350.04345 125.33768 350.27148 125.90582 350.27148 126.49805 L 346.99219 141.94141 C 346.58218 143.8092 345.80686 145.29143 344.66797 146.38477 C 343.57462 147.43255 342.45921 147.95508 341.32031 147.95508 C 340.36364 147.95508 339.54271 147.63779 338.85938 147 C 338.2216 146.36222 337.9043 144.9028 337.9043 142.625 C 337.9043 140.34721 338.31281 137.72871 339.13281 134.76758 C 339.95282 131.76089 341.093 129.20885 342.55078 127.11328 C 344.00857 124.97216 345.64846 123.90234 347.4707 123.90234 z M 404.80273 155.81445 L 403.98242 159.8457 C 403.57242 161.71349 403.00233 163.05695 402.27344 163.87695 C 401.54454 164.74251 400.77118 165.17578 399.95117 165.17578 C 399.22228 165.17578 398.58378 164.92494 398.03711 164.42383 C 397.49044 163.96827 397.2168 163.46659 397.2168 162.91992 C 397.2168 161.1888 397.87809 159.77693 399.19922 158.68359 C 400.52034 157.59025 402.38827 156.63446 404.80273 155.81445 z " />
  <path
     id="text2"
     style="font-size:85.8187px;line-height:1.25;font-family:Lobster;-inkscape-font-specification:'Lobster, Normal';letter-spacing:0px;word-spacing:0px;fill:#ffd700;stroke-width:7.15156"
     d="M 247.82617 171.25781 C 243.13476 171.25781 238.44338 172.34546 233.75195 174.51953 C 229.06054 176.63639 225.19827 179.43973 222.16602 182.92969 C 219.19097 186.36244 217.70508 189.90872 217.70508 193.57031 C 217.70508 196.54536 218.44802 198.69193 219.93555 200.00781 C 221.48029 201.26648 223.79725 201.89453 226.88672 201.89453 C 226.88672 201.7801 226.6876 201.32246 226.28711 200.52148 C 225.88662 199.6633 225.68555 198.17545 225.68555 196.05859 C 225.68555 189.47917 227.63103 184.35886 231.52148 180.69727 C 235.46914 177.03567 240.9322 175.20508 247.91211 175.20508 C 251.45928 175.20508 254.12095 176.29273 255.89453 178.4668 C 257.66812 180.64087 258.55469 183.44421 258.55469 186.87695 C 258.55469 189.96642 257.89596 193.11251 256.58008 196.31641 C 255.26419 199.5203 253.4336 202.20874 251.08789 204.38281 C 248.79939 206.55688 246.28135 207.75943 243.53516 207.98828 L 249.62891 179.32422 L 236.92773 181.04102 L 225.25586 235.62109 L 237.61523 235.62109 L 242.84961 211.16406 L 243.27734 211.16406 C 248.19761 211.16406 252.54625 210.04769 256.32227 207.81641 C 260.09829 205.52791 262.9878 202.60967 264.99023 199.0625 C 267.04988 195.51533 268.08008 191.88287 268.08008 188.16406 C 268.08008 185.07459 267.33517 182.27126 265.84766 179.75391 C 264.41734 177.17935 262.18655 175.11895 259.1543 173.57422 C 256.12204 172.02948 252.34595 171.25781 247.82617 171.25781 z M 341.2832 174.43359 C 339.39519 174.43359 337.79245 175.11909 336.47656 176.49219 C 335.16068 177.80807 334.50391 179.41082 334.50391 181.29883 C 334.50391 183.18684 335.16068 184.78763 336.47656 186.10352 C 337.79245 187.4194 339.39519 188.07812 341.2832 188.07812 C 343.17121 188.07812 344.77396 187.4194 346.08984 186.10352 C 347.46294 184.78763 348.14844 183.18684 348.14844 181.29883 C 348.14844 179.41082 347.46294 177.80807 346.08984 176.49219 C 344.77396 175.11909 343.17121 174.43359 341.2832 174.43359 z M 325.92188 175.54883 L 313.2207 177.26562 L 307.46289 204.2207 C 307.34646 204.27079 307.24443 204.33364 307.12695 204.38281 C 304.66682 205.35542 302.49348 205.8418 300.60547 205.8418 C 300.14777 205.8418 299.83375 205.81306 299.66211 205.75586 L 299.66211 205.67188 C 299.66211 196.51789 295.99897 191.93945 288.67578 191.93945 C 283.29781 191.93945 278.83623 193.68582 275.28906 197.17578 C 271.74189 200.60852 269.1664 204.69864 267.56445 209.44727 C 265.9625 214.1959 265.16211 218.51581 265.16211 222.40625 C 265.16211 227.09767 266.39142 230.52905 268.85156 232.70312 C 271.31169 234.8772 274.65886 235.96484 278.89258 235.96484 C 282.38253 235.96484 285.6148 234.90592 288.58984 232.78906 C 291.56489 230.6722 293.99675 227.66974 295.88477 223.7793 C 297.77278 219.88885 298.9466 215.33915 299.4043 210.13281 C 301.98671 209.71024 304.38548 209.04513 306.62109 208.16016 L 304.03711 220.25977 C 303.57941 222.54826 303.35156 224.40758 303.35156 225.83789 C 303.35156 229.27063 304.18068 231.84613 305.83984 233.5625 C 307.55622 235.27887 309.78701 236.13672 312.5332 236.13672 C 315.79431 236.13672 319.08403 235.04907 322.40234 232.875 C 323.89445 231.87169 325.25863 230.44798 326.50781 228.64648 C 326.85433 230.70073 327.58776 232.35615 328.75391 233.5625 C 330.47028 235.27887 332.70107 236.13672 335.44727 236.13672 C 338.70837 236.13672 341.99808 235.04907 345.31641 232.875 C 346.87026 231.83017 348.28772 230.33623 349.57812 228.42578 C 350.16391 230.23485 351.05587 231.7224 352.26758 232.875 C 354.61329 235.04907 357.903 236.13672 362.13672 236.13672 C 369.84095 236.13672 376.50614 232.50705 382.16602 225.37109 C 382.16192 225.51412 382.13281 225.70255 382.13281 225.83789 C 382.13281 229.27063 382.96194 231.84613 384.62109 233.5625 C 386.33747 235.27887 388.56826 236.13672 391.31445 236.13672 C 395.37654 236.13672 398.86733 234.47652 401.78516 231.1582 L 400.92773 234.93555 C 397.5522 235.96537 394.86181 236.93812 392.85938 237.85352 C 390.85694 238.76891 389.22742 240.02695 387.96875 241.62891 C 386.71008 243.23085 386.08008 245.29125 386.08008 247.80859 C 386.08008 250.49758 387.08155 252.69964 389.08398 254.41602 C 391.14363 256.1896 393.51805 257.07617 396.20703 257.07617 C 399.69699 257.07617 402.8718 256.01725 405.73242 253.90039 C 408.65026 251.78353 410.68193 247.97872 411.82617 242.48633 L 422.29492 192.71289 L 409.85156 192.71289 L 404.01562 220.25977 C 403.32908 222.60548 402.41378 224.46479 401.26953 225.83789 C 400.12529 227.15378 398.75234 227.8125 397.15039 227.8125 C 395.43402 227.8125 394.57617 226.55251 394.57617 224.03516 C 394.57617 223.2914 394.66234 222.57717 394.83398 221.89062 L 401.01172 192.71289 L 388.6543 192.71289 L 382.81836 220.25977 C 380.18659 223.1776 377.75668 225.35289 375.52539 226.7832 C 373.35132 228.21352 370.71838 228.92773 367.62891 228.92773 C 365.45484 228.92773 363.88277 228.44136 362.91016 227.46875 C 361.93754 226.43892 361.45117 224.52215 361.45117 221.71875 C 361.45117 218.51485 361.99304 214.91112 363.08008 210.90625 C 364.16711 206.90138 365.56878 203.49676 367.28516 200.69336 C 369.00153 197.88995 370.71917 196.48828 372.43555 196.48828 C 373.23652 196.48828 373.83584 196.8023 374.23633 197.43164 C 374.63681 198.06097 374.83789 198.92077 374.83789 200.00781 C 374.83789 201.49533 374.49515 203.1823 373.80859 205.07031 C 374.83842 205.75686 375.83989 206.09961 376.8125 206.09961 C 378.12839 206.09961 379.21408 205.55578 380.07227 204.46875 C 380.93045 203.38171 381.35938 201.83837 381.35938 199.83594 C 381.35937 197.54744 380.61643 195.6594 379.12891 194.17188 C 377.6986 192.68436 375.26673 191.93945 371.83398 191.93945 C 366.51324 191.93945 362.1091 193.68582 358.61914 197.17578 C 355.1864 200.60852 352.66835 204.69864 351.06641 209.44727 C 349.52167 214.1959 348.75 218.54453 348.75 222.49219 C 348.75 222.66858 348.76231 222.83099 348.76562 223.00391 C 348.22004 224.03797 347.56522 224.96213 346.77539 225.75195 C 345.34509 227.12505 343.79979 227.8125 342.14062 227.8125 C 340.88195 227.8125 339.96665 227.5827 339.39453 227.125 C 338.87962 226.61009 338.62305 225.78097 338.62305 224.63672 C 338.62305 223.66411 338.73795 222.74881 338.9668 221.89062 L 345.14453 192.71289 L 332.78711 192.71289 L 326.95117 220.25977 C 326.32183 222.49105 325.29164 224.32164 323.86133 225.75195 C 322.43102 227.12505 320.88768 227.8125 319.22852 227.8125 C 317.96984 227.8125 317.05455 227.5827 316.48242 227.125 C 315.96752 226.61009 315.70898 225.78097 315.70898 224.63672 C 315.70898 223.66411 315.82389 222.74881 316.05273 221.89062 L 325.92188 175.54883 z M 289.36328 197.17578 C 290.50753 197.17578 291.30793 197.54726 291.76562 198.29102 C 292.22332 198.97757 292.51057 200.26434 292.625 202.15234 C 290.85142 202.89611 289.96289 204.44141 289.96289 206.78711 C 289.96289 208.84676 290.73651 210.04735 292.28125 210.39062 C 291.82355 213.70894 291.07865 216.74208 290.04883 219.48828 C 289.019 222.17727 287.81841 224.32188 286.44531 225.92383 C 285.07221 227.46857 283.69926 228.24219 282.32617 228.24219 C 280.66701 228.24219 279.52191 227.78259 278.89258 226.86719 C 278.26324 225.89458 277.94922 224.03526 277.94922 221.28906 C 277.94922 218.37123 278.49304 214.99729 279.58008 211.16406 C 280.66711 207.33083 282.09751 204.04111 283.87109 201.29492 C 285.64468 198.54872 287.47527 197.17578 289.36328 197.17578 z M 400.32617 237.68164 L 399.29688 242.74414 C 398.78196 245.08985 398.06579 246.77877 397.15039 247.80859 C 396.235 248.89563 395.26225 249.4375 394.23242 249.4375 C 393.31702 249.4375 392.51662 249.12348 391.83008 248.49414 C 391.14353 247.92202 390.80078 247.29202 390.80078 246.60547 C 390.80078 244.4314 391.6299 242.65825 393.28906 241.28516 C 394.94823 239.91206 397.29391 238.71146 400.32617 237.68164 z " />
</svg>
